<mxfile host="app.diagrams.net" modified="2024-04-18T12:59:18.587Z" agent="Mozilla/5.0 (X11; Linux x86_64) AppleWebKit/537.36 (KHTML, like Gecko) Chrome/122.0.0.0 Safari/537.36" etag="rR_phdH-CqCiDJkQ-wwj" version="24.2.5" type="github">
  <diagram id="C5RBs43oDa-KdzZeNtuy" name="Page-1">
    <mxGraphModel dx="1437" dy="825" grid="1" gridSize="10" guides="1" tooltips="1" connect="1" arrows="1" fold="1" page="1" pageScale="1" pageWidth="827" pageHeight="1169" math="0" shadow="0">
      <root>
        <mxCell id="WIyWlLk6GJQsqaUBKTNV-0" />
        <mxCell id="WIyWlLk6GJQsqaUBKTNV-1" parent="WIyWlLk6GJQsqaUBKTNV-0" />
        <mxCell id="NQ7LW5FoMBB1WePMF2zc-2" value="" style="edgeStyle=orthogonalEdgeStyle;rounded=0;orthogonalLoop=1;jettySize=auto;html=1;" edge="1" parent="WIyWlLk6GJQsqaUBKTNV-1" source="WIyWlLk6GJQsqaUBKTNV-3" target="WIyWlLk6GJQsqaUBKTNV-7">
          <mxGeometry relative="1" as="geometry" />
        </mxCell>
        <mxCell id="WIyWlLk6GJQsqaUBKTNV-3" value="WAV Formated Files" style="rounded=1;whiteSpace=wrap;html=1;fontSize=12;glass=0;strokeWidth=2;shadow=0;fillColor=#fa6800;fontColor=#000000;strokeColor=#000000;perimeterSpacing=2;" parent="WIyWlLk6GJQsqaUBKTNV-1" vertex="1">
          <mxGeometry x="154" y="210" width="120" height="40" as="geometry" />
        </mxCell>
        <mxCell id="NQ7LW5FoMBB1WePMF2zc-5" value="" style="edgeStyle=orthogonalEdgeStyle;rounded=0;orthogonalLoop=1;jettySize=auto;html=1;" edge="1" parent="WIyWlLk6GJQsqaUBKTNV-1" source="WIyWlLk6GJQsqaUBKTNV-7" target="NQ7LW5FoMBB1WePMF2zc-3">
          <mxGeometry relative="1" as="geometry" />
        </mxCell>
        <mxCell id="WIyWlLk6GJQsqaUBKTNV-7" value="Convert.sh" style="rounded=1;whiteSpace=wrap;html=1;fontSize=12;glass=0;strokeWidth=2;shadow=0;fillColor=#fa6800;fontColor=#000000;strokeColor=default;gradientColor=#FF0000;perimeterSpacing=2;" parent="WIyWlLk6GJQsqaUBKTNV-1" vertex="1">
          <mxGeometry x="330" y="210" width="120" height="40" as="geometry" />
        </mxCell>
        <mxCell id="NQ7LW5FoMBB1WePMF2zc-1" value="" style="edgeStyle=orthogonalEdgeStyle;rounded=0;orthogonalLoop=1;jettySize=auto;html=1;" edge="1" parent="WIyWlLk6GJQsqaUBKTNV-1" source="NQ7LW5FoMBB1WePMF2zc-0" target="WIyWlLk6GJQsqaUBKTNV-3">
          <mxGeometry relative="1" as="geometry" />
        </mxCell>
        <mxCell id="NQ7LW5FoMBB1WePMF2zc-0" value="GTZAN Dataset" style="ellipse;shape=cloud;whiteSpace=wrap;html=1;fillColor=#dae8fc;strokeColor=#6c8ebf;" vertex="1" parent="WIyWlLk6GJQsqaUBKTNV-1">
          <mxGeometry x="144" y="60" width="140" height="90" as="geometry" />
        </mxCell>
        <mxCell id="NQ7LW5FoMBB1WePMF2zc-7" style="edgeStyle=orthogonalEdgeStyle;rounded=0;orthogonalLoop=1;jettySize=auto;html=1;entryX=0.5;entryY=0;entryDx=0;entryDy=0;" edge="1" parent="WIyWlLk6GJQsqaUBKTNV-1" source="NQ7LW5FoMBB1WePMF2zc-3" target="NQ7LW5FoMBB1WePMF2zc-6">
          <mxGeometry relative="1" as="geometry">
            <mxPoint x="284" y="350" as="targetPoint" />
            <Array as="points">
              <mxPoint x="580" y="290" />
              <mxPoint x="214" y="290" />
            </Array>
          </mxGeometry>
        </mxCell>
        <mxCell id="NQ7LW5FoMBB1WePMF2zc-3" value="FLAC/MP3 Formated Files" style="rounded=1;whiteSpace=wrap;html=1;fontSize=12;glass=0;strokeWidth=2;shadow=0;fillColor=#e51400;fontColor=#000000;strokeColor=#000000;perimeterSpacing=2;" vertex="1" parent="WIyWlLk6GJQsqaUBKTNV-1">
          <mxGeometry x="520" y="210" width="120" height="40" as="geometry" />
        </mxCell>
        <mxCell id="NQ7LW5FoMBB1WePMF2zc-9" value="" style="edgeStyle=orthogonalEdgeStyle;rounded=0;orthogonalLoop=1;jettySize=auto;html=1;" edge="1" parent="WIyWlLk6GJQsqaUBKTNV-1" source="NQ7LW5FoMBB1WePMF2zc-6" target="NQ7LW5FoMBB1WePMF2zc-8">
          <mxGeometry relative="1" as="geometry" />
        </mxCell>
        <mxCell id="NQ7LW5FoMBB1WePMF2zc-6" value="AudioFeatures.py" style="rounded=1;whiteSpace=wrap;html=1;fontSize=12;glass=0;strokeWidth=2;shadow=0;fillColor=#0050ef;fontColor=#000000;strokeColor=#000000;perimeterSpacing=2;" vertex="1" parent="WIyWlLk6GJQsqaUBKTNV-1">
          <mxGeometry x="154" y="330" width="120" height="40" as="geometry" />
        </mxCell>
        <mxCell id="NQ7LW5FoMBB1WePMF2zc-12" value="" style="edgeStyle=orthogonalEdgeStyle;rounded=0;orthogonalLoop=1;jettySize=auto;html=1;" edge="1" parent="WIyWlLk6GJQsqaUBKTNV-1" source="NQ7LW5FoMBB1WePMF2zc-8" target="NQ7LW5FoMBB1WePMF2zc-10">
          <mxGeometry relative="1" as="geometry" />
        </mxCell>
        <mxCell id="NQ7LW5FoMBB1WePMF2zc-8" value="Extracted Features" style="rounded=1;whiteSpace=wrap;html=1;fontSize=12;glass=0;strokeWidth=2;shadow=0;perimeterSpacing=2;fillColor=#1ba1e2;fontColor=#000000;strokeColor=#000000;" vertex="1" parent="WIyWlLk6GJQsqaUBKTNV-1">
          <mxGeometry x="330" y="330" width="120" height="40" as="geometry" />
        </mxCell>
        <mxCell id="NQ7LW5FoMBB1WePMF2zc-14" value="" style="edgeStyle=orthogonalEdgeStyle;rounded=0;orthogonalLoop=1;jettySize=auto;html=1;" edge="1" parent="WIyWlLk6GJQsqaUBKTNV-1" source="NQ7LW5FoMBB1WePMF2zc-10" target="NQ7LW5FoMBB1WePMF2zc-13">
          <mxGeometry relative="1" as="geometry" />
        </mxCell>
        <mxCell id="NQ7LW5FoMBB1WePMF2zc-10" value="CsvWriter.py" style="rounded=1;whiteSpace=wrap;html=1;fontSize=12;glass=0;strokeWidth=2;shadow=0;arcSize=16;perimeterSpacing=2;fillColor=#60a917;fontColor=#000000;strokeColor=#000000;" vertex="1" parent="WIyWlLk6GJQsqaUBKTNV-1">
          <mxGeometry x="520" y="330" width="120" height="40" as="geometry" />
        </mxCell>
        <mxCell id="NQ7LW5FoMBB1WePMF2zc-13" value="Features_X_Sec.csv" style="shape=image;verticalLabelPosition=bottom;labelBackgroundColor=default;verticalAlign=top;aspect=fixed;imageAspect=0;image=https://cdn-icons-png.flaticon.com/512/9159/9159105.png;textShadow=0;" vertex="1" parent="WIyWlLk6GJQsqaUBKTNV-1">
          <mxGeometry x="547" y="420" width="66" height="66" as="geometry" />
        </mxCell>
      </root>
    </mxGraphModel>
  </diagram>
</mxfile>
